<svg width="25" height="25" viewBox="0 0 25 25" fill="none" xmlns="http://www.w3.org/2000/svg">
<path d="M13.8601 0.863832C13.6092 0.335935 13.0789 0 12.4966 0C11.9143 0 11.3888 0.335935 11.1331 0.863832L8.08893 7.213L1.29041 8.2304C0.722292 8.31679 0.248858 8.71991 0.0736874 9.2718C-0.101483 9.82369 0.0405469 10.4332 0.4477 10.8411L5.38088 15.7889L4.21624 22.7812C4.12155 23.3571 4.35827 23.9426 4.82697 24.2833C5.29567 24.624 5.91586 24.6672 6.42717 24.3937L12.5013 21.1063L18.5755 24.3937C19.0868 24.6672 19.707 24.6288 20.1757 24.2833C20.6444 23.9378 20.8811 23.3571 20.7864 22.7812L19.617 15.7889L24.5502 10.8411C24.9574 10.4332 25.1041 9.82369 24.9242 9.2718C24.7443 8.71991 24.2756 8.31679 23.7075 8.2304L16.9043 7.213L13.8601 0.863832Z" fill="black"/>
</svg>
